<svg xmlns="http://www.w3.org/2000/svg" width="101" height="101" viewBox="0 0 101 101" fill="none">
  <path d="M50.465 57.7351C30.964 57.7351 15.098 73.6021 15.098 93.1061C15.098 93.9341 15.769 94.6061 16.598 94.6061H84.332C85.16 94.6061 85.832 93.9341 85.832 93.1061C85.832 73.6021 69.967 57.7351 50.465 57.7351ZM18.132 91.6061C18.918 74.4501 33.12 60.7351 50.465 60.7351C67.81 60.7351 82.013 74.4501 82.798 91.6061H18.132Z" fill="black"/>
  <path d="M49.876 13.3792C38.648 13.3792 29.513 22.5142 29.513 33.7422C29.513 44.9702 38.648 54.1051 49.876 54.1051C61.105 54.1051 70.239 44.9702 70.239 33.7422C70.239 22.5142 61.104 13.3792 49.876 13.3792ZM49.876 51.1051C40.302 51.1051 32.513 43.3162 32.513 33.7422C32.513 24.1682 40.302 16.3792 49.876 16.3792C59.45 16.3792 67.239 24.1682 67.239 33.7422C67.239 43.3162 59.45 51.1051 49.876 51.1051Z" fill="black"/>
  <path d="M25.138 44.889C25.967 44.889 26.638 44.218 26.638 43.389V23.977C26.638 23.881 26.627 23.788 26.61 23.697C30.629 14.378 39.664 8.39304 49.877 8.39304C60.273 8.39304 69.459 14.595 73.363 24.209V43.276C72.105 46.374 70.278 49.16 67.913 51.556C67.331 52.146 67.337 53.095 67.927 53.677C68.219 53.966 68.6 54.11 68.981 54.11C69.368 54.11 69.755 53.961 70.048 53.664C72.568 51.111 74.543 48.16 75.941 44.89H76.995C83.174 44.89 88.201 39.863 88.201 33.684C88.201 27.505 83.174 22.478 76.995 22.478H75.877C71.374 12.075 61.281 5.39404 49.877 5.39404C38.467 5.39404 28.373 12.074 23.872 22.478H23.006C16.827 22.478 11.8 27.505 11.8 33.684C11.8 39.863 16.827 44.89 23.006 44.89H25.138V44.889ZM85.201 33.683C85.201 38.208 81.519 41.889 76.995 41.889H76.363V25.477H76.995C81.52 25.477 85.201 29.158 85.201 33.683ZM14.8 33.683C14.8 29.158 18.481 25.477 23.006 25.477H23.638V41.889H23.006C18.481 41.889 14.8 38.208 14.8 33.683Z" fill="black"/>
</svg>