<svg xmlns="http://www.w3.org/2000/svg" width="101" height="101" viewBox="0 0 101 101" fill="none">
  <path d="M65.8 57.5V53.2C65.8 52.7 65.5 52.2 65.1 51.9C64.7 51.6 64.1 51.6 63.7 51.8L50.3 57.7L36.9 51.8C36.4 51.6 35.9 51.6 35.5 51.9C35.1 52.2 34.8 52.6 34.8 53.2V57.3C22.4 63.2 14.5 75.7 14.5 89.4C14.5 90.2 15.2 90.9 16 90.9H84.2C85 90.9 85.7 90.2 85.7 89.4C85.6 75.9 77.8 63.5 65.8 57.5ZM62.8 55.5V63.2L54 59.3L62.8 55.5ZM46.5 59.3L37.7 63.1V58.1V55.4L46.5 59.3ZM34.7 60.6V65.4C34.7 65.9 35 66.4 35.4 66.7C35.6 66.9 35.9 66.9 36.2 66.9C36.4 66.9 36.6 66.9 36.8 66.8L50.2 60.9L63.6 66.8C63.8 66.9 64 66.9 64.2 66.9C64.5 66.9 64.8 66.8 65 66.7C65.4 66.4 65.7 66 65.7 65.4V60.9C69.1 62.8 72.1 65.3 74.6 68.2C74.6 68.2 74.6 68.3 74.5 68.3L62.2 87.9H37L25.4 68.3L25.3 68.2C27.9 65.1 31.1 62.5 34.7 60.6ZM23.3 70.7L33.5 87.9H17.5C17.7 81.6 19.8 75.7 23.3 70.7ZM65.7 87.9L76.6 70.7C80.1 75.7 82.2 81.6 82.5 87.9H65.7Z" fill="black"/>
  <path d="M49.4001 50.1C60.7001 50.1 69.9001 40.9 69.9001 29.6C69.9001 28.9 69.9001 28.1 69.8001 27.4C69.7001 26.8 69.6001 26.4 69.6001 25.9C67.8001 16.4 59.4001 9.09998 49.4001 9.09998C39.4001 9.09998 31.0001 16.3 29.3001 25.9C29.2001 26.2 29.1001 27.1 29.1001 27.4C29.0001 28.1 29.0001 28.8 29.0001 29.6C28.9001 40.9 38.1001 50.1 49.4001 50.1ZM49.4001 47.1C39.8001 47.1 31.9001 39.3 31.9001 29.6C31.9001 29.2 31.9001 28.7 32.0001 28.3C34.8001 28.2 40.9001 27.8 45.0001 26.1C48.1001 24.8 52.2001 22.1 53.9001 20.9L66.8001 27.7C66.9001 28.3 66.9001 29 66.9001 29.6C66.9001 39.3 59.0001 47.1 49.4001 47.1ZM49.4001 12.1C57.0001 12.1 63.5001 17 65.9001 23.8L54.5001 17.8C54.0001 17.5 53.4001 17.6 52.9001 17.9C52.8001 17.9 47.4001 21.8 43.8001 23.3C40.5001 24.7 35.3001 25.1 32.5001 25.3C34.4001 17.7 41.3001 12.1 49.4001 12.1Z" fill="black"/>
</svg>