<svg xmlns="http://www.w3.org/2000/svg" width="101" height="101" viewBox="0 0 101 101" fill="none">
  <path d="M20.4 19.3L32 24.4C29.7 27.7999 28.5 31.6999 28.5 35.7999C28.5 47 37.6 56.2 48.9 56.2C60.2 56.2 69.3 47.0999 69.3 35.7999C69.3 31.7999 68.1 27.7999 65.9 24.5L76.1 19.7V39.0999L73 45.7C72.8 46.2 72.8 46.6999 73.1 47.0999C73.4 47.5 73.9 47.7999 74.4 47.7999H80.3C80.8 47.7999 81.3 47.5999 81.5 47.0999C81.8 46.6999 81.8 46.2 81.6 45.7L78.9 39.0999V18.4C78.9 17.6 78.8 17 77.4 16.4C77.1 16.3 49.6 4.09995 49.6 4.09995C49.2 3.89995 48.8 3.89995 48.4 4.09995L20.4 16.5C19.9 16.7 19.5 17.3 19.5 17.9C19.5 18.5 19.8 19 20.4 19.3ZM66.2 35.7999C66.2 45.3999 58.4 53.2 48.8 53.2C39.2 53.2 31.4 45.3999 31.4 35.7999C31.4 32.0999 32.6 28.6 34.7 25.6L48.3 31.7C48.5 31.8 48.7 31.7999 48.9 31.7999C49.1 31.7999 49.3 31.8 49.5 31.7L62.9 25.7C65.1 28.7 66.2 32.1999 66.2 35.7999ZM76.7 44.7999L77.4 43.2999L78 44.7999H76.7ZM49 7.09995L73.3 17.9L49 28.7L24.7 17.9L49 7.09995Z" fill="black"/>
  <path d="M49.4 59.8C29.9 59.8 14 75.7 14 95.2C14 96 14.7 96.7 15.5 96.7H83.3C84.1 96.7 84.8 96 84.8 95.2C84.8 75.7 68.9 59.8 49.4 59.8ZM17.1 93.7C17.9 76.5 32.1 62.8 49.5 62.8C66.9 62.8 81 76.6 81.8 93.7H17.1Z" fill="black"/>
</svg>